<svg version="1.1"
      xmlns="http://www.w3.org/2000/svg"
      xmlns:xlink="http://www.w3.org/1999/xlink"  id="snapshot-77551" width="250" height="250" viewBox="0 0 250 250"><desc>This image was made on Patterninja.com</desc><defs>
<!-- image 71412 -->
<g id="transformed-71412" data-image="71412" transform="translate(-173.79408369837972, -173.79408369837975) rotate(42, 173.79408369837972, 173.79408369837975)"><g><svg version="1.1" width="347.58816739675945px" height="347.5881673967595px" viewBox="0 0 347.58816739675945 347.5881673967595"><g id="original-71412"><svg xmlns="http://www.w3.org/2000/svg" viewBox="0 0 400 400" xmlns:xlink="http://www.w3.org/1999/xlink" version="1.1" preserveAspectRatio="xMidYMid meet">
  <path d="M314.3 192.6H292l14.8-14c2-1.9 2.1-5.1.2-7.1-1.9-2-5.1-2.1-7.1-.2l-22.5 21.3h-18.3l30.9-42.2c1.2-1.6 1.3-3.7.3-5.5a5.1 5.1 0 0 0-4.9-2.5l-49 5.3 8.9-14.2 30.7-7.7c2.7-.7 4.3-3.4 3.6-6.1-.7-2.7-3.4-4.3-6.1-3.6l-20.5 5.2 11.6-18.4c1.5-2.3.8-5.4-1.6-6.9-2.3-1.5-5.4-.8-6.9 1.6l-11.5 18.3-5-20.2c-.7-2.7-3.4-4.3-6-3.7-2.7.7-4.3 3.4-3.7 6l7.3 29.6-11.3 18-22.1-50.2c-.8-1.8-2.6-3-4.6-3-2 0-3.8 1.2-4.6 3l-22.2 50.4-10.9-17.4 6.7-30.2c.6-2.7-1.1-5.4-3.8-6-2.7-.6-5.4 1.1-6 3.8l-4.5 20.3-11.8-18.8c-1.5-2.3-4.6-3-6.9-1.6-2.3 1.5-3 4.6-1.6 6.9l11.9 18.9-20.7-4.7c-2.7-.6-5.4 1.1-6 3.8-.6 2.7 1.1 5.4 3.8 6l30.4 6.9 8.8 14-48.8-5.3c-2-.2-3.9.8-4.9 2.5-1 1.7-.9 3.9.3 5.5l30.9 42.2H122l-22.5-21.3c-2-1.9-5.2-1.8-7.1.2-1.9 2-1.8 5.2.2 7.1l14.8 14H84.2c-2.8 0-5 2.2-5 5s2.2 5 5 5H109l-14.9 15.6c-1.9 2-1.8 5.2.2 7.1 1 .9 2.2 1.4 3.4 1.4 1.3 0 2.6-.5 3.6-1.5l21.4-22.5h16.6l-30.7 42c-1.2 1.6-1.3 3.7-.3 5.5 1 1.7 2.9 2.7 4.9 2.5l49-5.3L151 265l-28.3 7.1c-2.7.7-4.3 3.4-3.6 6.1.6 2.3 2.6 3.8 4.8 3.8.4 0 .8 0 1.2-.2l18.2-4.6-9.5 15.1c-1.5 2.3-.8 5.4 1.6 6.9.8.5 1.7.8 2.7.8 1.7 0 3.3-.8 4.2-2.3l11.2-17.8 5.5 22.5c.6 2.3 2.6 3.8 4.9 3.8.4 0 .8 0 1.2-.1 2.7-.7 4.3-3.4 3.7-6l-7.8-31.7v-.1l11.8-18.8 22.1 50.2c.8 1.8 2.6 3 4.6 3 2 0 3.8-1.2 4.6-3l22.1-50 11.5 18.4-7.1 31.9c-.6 2.7 1.1 5.4 3.8 6 .4.1.7.1 1.1.1 2.3 0 4.4-1.6 4.9-3.9l4.9-22 11.2 17.7c.9 1.5 2.6 2.3 4.2 2.3.9 0 1.8-.2 2.7-.8 2.3-1.5 3-4.6 1.6-6.9l-9.9-15.8 19 4.3c.4.1.7.1 1.1.1 2.3 0 4.3-1.6 4.9-3.9.6-2.7-1.1-5.4-3.8-6l-28.7-6.5-11-17.4 49.2 5.3c2 .2 3.9-.8 4.9-2.5 1-1.7.9-3.9-.3-5.5l-30.7-42h17.6l21.4 22.5c1 1 2.3 1.5 3.6 1.5 1.2 0 2.5-.5 3.4-1.4 2-1.9 2.1-5.1.2-7.1L291 202.5h23.5c2.8 0 5-2.2 5-5s-2.5-4.9-5.2-4.9zm-39-39l-28.5 39h-38.4l21.4-34 45.5-5zm-76-43.8l20.3 46-20.4 32.4L179 156l20.3-46.2zm-75.9 43.8l45.4 4.9 21.4 34h-38.3l-28.5-38.9zm0 87.7l28.3-38.7h38.4L169 236.4l-45.6 4.9zm75.9 43.9l-20.3-46 20.2-32.1 20.3 32.3-20.2 45.8zm76-43.9l-45.8-5-21.2-33.7h38.6l28.4 38.7z" fill="rgba(255, 255, 255, 1)" stroke="none"/>
</svg>
</g></svg></g></g>
<!-- /image 71412 -->
</defs><rect x="0" y="0" width="250" height="250" fill="rgba(4, 224, 185, 1)"></rect><use xlink:href="#transformed-71412" transform="translate(-250, -250)"></use><use xlink:href="#transformed-71412" transform="translate(0, -250)"></use><use xlink:href="#transformed-71412" transform="translate(250, -250)"></use><use xlink:href="#transformed-71412" transform="translate(-250, 0)"></use><use xlink:href="#transformed-71412" transform="translate(0, 0)"></use><use xlink:href="#transformed-71412" transform="translate(250, 0)"></use><use xlink:href="#transformed-71412" transform="translate(-250, 250)"></use><use xlink:href="#transformed-71412" transform="translate(0, 250)"></use><use xlink:href="#transformed-71412" transform="translate(250, 250)"></use></svg>